<?xml version="1.0" encoding="UTF-8"?>
<svg id="Capa_1" data-name="Capa 1" xmlns="http://www.w3.org/2000/svg" viewBox="0 0 1134 254">
  <defs>
    <style>
      .cls-1 {
        fill: #fff;
      }

      .cls-2 {
        fill: #763185;
      }

      .cls-3 {
        fill: #e3f853;
      }

      .cls-4 {
        fill: #aa5;
      }

      .cls-5 {
        fill: #7fff00;
      }

      .cls-6 {
        fill: #7f7f00;
      }

      .cls-7 {
        fill: lime;
      }

      .cls-8 {
        fill: #aaa;
      }

      .cls-9 {
        fill: #ccc;
      }

      .cls-10 {
        fill: #7fff7f;
      }

      .cls-11 {
        fill: #7f7f7f;
      }

      .cls-12 {
        fill: red;
      }

      .cls-13 {
        fill: #ff0;
      }

      .cls-14 {
        fill: #fefefe;
      }
    </style>
  </defs>
  <rect class="cls-2" width="1134" height="254" rx="76.36" ry="76.36"/>
  <path class="cls-3" d="M743,48.72c-3.14,3.14-11.67,9.02-11.08,14,.33,2.8,3.24,5.13,5.08,7l11.99,12c12.58,12.73,25.26,26,25.75,45,.72,28.13-27.31,41.04-41.4,61-4.61,6.54,6.39,14.54,11.66,17,5.84-7.67,13.19-14.19,20-21,5.98-5.98,11.66-12.2,19-16.55,3.75-2.22,7.78-3.89,12-4.98,32.37-8.32,53.97,22.49,74,42.52,5.42-3.82,11.18-8.94,14-15-7.36-5.19-12.77-12.6-19.02-19-7.57-7.76-16.46-14.94-21.08-25-6.43-14.02-5.09-31.18,3.46-44,5.28-7.91,12.96-14.29,19.64-21,5.64-5.66,10.46-12.35,17-17v-3c-4.84-3.41-8.82-7.82-13-12-13.17,9.28-22.58,23.43-35,33.67-4.09,3.37-9.02,5.87-14,7.63-4.15,1.47-8.59,2.47-13,2.66-30.77,1.31-44.02-28.48-66-43.96Z"/>
  <path class="cls-14" d="M99,71.72c6.9-3.97,12.77-9.37,20-12.89,18.87-9.18,40.6-9.52,60-1.66,8.86,3.59,15.57,10.35,24,14.55v-17h21V197.72h-21v-20c-2.96,1.31-5.38,3.08-8,5,3.08,.64,4.65-1.01,7-3v21h16c2.21-.02,5.42,.36,6.97-1.6,1.94-2.45,1.03-7.49,1.03-10.4V52.72h-24v17c-20.73-19.82-52.33-25.52-79-15.19-8.49,3.29-19.93,8.64-24,17.19Z"/>
  <path class="cls-1" d="M523,180.72v19h25V64.72c0-2.91,.91-7.95-1.03-10.4-1.55-1.96-4.76-1.59-6.97-1.6h-17s0,16,0,16c-10.84-8.59-22.4-14.91-36-17.79-8.47-1.79-18.45-2.11-27-.6-50.97,9.01-79.44,67.11-52.99,112.38,4.75,8.12,10.57,15.17,17.99,20.99,7.93,6.22,17.23,11.25,27,13.86,10.59,2.83,22.2,3.45,33,1.54,14.41-2.55,26.64-9.38,38-18.38m511,0v19h24V52.72h-24v16c-11.6-9.34-24.17-16.09-39-18.41-9.36-1.46-19.79-1.11-29,1.06-9.33,2.21-18.16,6.03-26,11.55-42.46,29.93-41.28,93.58,0,123.63,8.11,5.91,18.1,10.33,28,12.07,10.66,1.88,21.4,2.03,32-.34,12.77-2.86,24.15-9.05,34-17.57m-837,4c-.6-1.2-.47-.98-2-2l8-5v20h21V54.72h-21v17c-12.93-9.29-24.95-17.05-41-19.56-10.78-1.69-22.57-.85-33,2.28-9.69,2.91-17.83,8.13-25.96,13.99-3.01,2.17-6.28,3.64-8.88,6.35-25.16,26.25-23.87,72.05-.86,98.93,15.62,18.25,38.82,27.89,62.7,26.09,15.89-1.2,27.4-7.51,41-15.09M241,52.72c4.02,14.72,12.34,29.13,18.69,43,11.4,24.9,22.17,50.08,33.54,75,2.88,6.31,5.61,12.68,8.46,19,1.36,3.01,2.37,7.02,4.94,9.26,3.72,3.22,15.76,2.64,20.32,1.42,4.41-1.17,5.84-5.95,7.47-9.68,3.82-8.74,8.12-17.44,12.33-26,11.21-22.81,21.95-45.91,32.55-69,6.55-14.26,14.65-28.11,19.69-43h-19c-2.58,0-6.11-.54-8.36,1.03-2.43,1.7-3.61,5.43-4.88,7.97l-10,20c-8.13,16.27-15.86,32.73-24,49-4.67,9.35-10.86,18.94-13.75,29-6.04-10.39-10.29-22.08-15.31-33-6.58-14.34-13.41-28.58-19.83-43-3.13-7.03-6.35-14.01-9.55-21-1.3-2.84-2.26-7.09-4.95-8.97-2.24-1.57-5.78-1.03-8.36-1.03h-20m338,0V180.72c0,5.14-.72,10.87,.15,15.94,1.07,6.26,12.16,4.14,16.85,4.05,1.98-.04,4.59,.14,5.97-1.6,1.65-2.09,1.03-5.93,1.03-8.4v-56c0-12.77-.1-24.77,6.95-36,17.43-27.75,57.83-24.82,72.24,4,5.68,11.36,4.81,24.68,4.81,37v61c5.66,0,11.34,.07,17,0,2.24-.03,5.39,.21,6.97-1.74,2.2-2.71,1.04-8.99,1.03-12.26-.05-11.31-1-22.63-1-34,0-19.31,2.83-40.92-5.31-59-3.81-8.46-8.94-16.49-15.7-22.91-24.72-23.49-61.68-22.97-86.98-1.09v-17h-24Z"/>
  <path class="cls-8" d="M651,52.72l1,1-1-1Z"/>
  <path class="cls-9" d="M398,53.72l1,1-1-1Z"/>
  <path class="cls-11" d="M398,54.72l1,1-1-1Z"/>
  <path class="cls-4" d="M876,69.72l1,1-1-1Z"/>
  <path class="cls-1" d="M874,71.72l1,1-1-1Z"/>
  <path class="cls-12" d="M750,82.72l1,1-1-1Z"/>
  <path class="cls-1" d="M752,84.72l1,1-1-1Z"/>
  <path class="cls-7" d="M781,84.72l1,1-1-1Z"/>
  <path class="cls-10" d="M753,85.72l1,1-1-1Z"/>
  <path class="cls-6" d="M754,86.72l1,1-1-1Z"/>
  <path class="cls-13" d="M844,105.72l1,1-1-1m-71,11l1,1-1-1m67,1l1,1-1-1Z"/>
  <path class="cls-7" d="M774,123.72l1,1-1-1Z"/>
  <path class="cls-12" d="M774,128.72l1,1-1-1Z"/>
  <path class="cls-1" d="M774,129.72l1,1-1-1Z"/>
  <path class="cls-7" d="M840,134.72l1,1-1-1Z"/>
  <path class="cls-8" d="M278,136.72l1,1-1-1Z"/>
  <path class="cls-4" d="M772,139.72l1,1-1-1Z"/>
  <path class="cls-13" d="M771,142.72l1,1-1-1Z"/>
  <path class="cls-4" d="M843,144.72l1,1-1-1Z"/>
  <path class="cls-8" d="M315,152.72l1,1-1-1Z"/>
  <path class="cls-13" d="M758,161.72l1,1-1-1m37,0l1,1-1-1Z"/>
  <path class="cls-1" d="M757,162.72l1,1-1-1Z"/>
  <path class="cls-12" d="M870,176.72l1,1-1-1Z"/>
  <path class="cls-13" d="M871,177.72l1,1-1-1Z"/>
  <path class="cls-4" d="M872,178.72l1,1-1-1Z"/>
  <path class="cls-5" d="M883,191.72l1,1-1-1Z"/>
  <path class="cls-10" d="M747,200.72l1,1-1-1Z"/>
  <path class="cls-13" d="M746,201.72l1,1-1-1Z"/>
  <path class="cls-2" d="M977,74.16c-8.87,1.39-17.82,4.56-25,10.09-33.87,26.1-21.09,80.57,20,90.23,5.77,1.36,12.11,1.78,18,.94,7.72-1.1,15.46-4.01,22-8.25,37.36-24.19,24.44-84.72-19-92.37-5.33-.94-10.62-1.49-16-.65Z"/>
  <path class="cls-2" d="M466,74.15c-8.28,1.19-16.11,3.8-23,8.61-35.07,24.47-25.74,81.96,17,91.54,5.9,1.32,11.97,1.92,18,1.14,7.83-1.02,15.34-3.53,22-7.8,36.93-23.69,27.09-84.22-17-92.65-5.65-1.08-11.27-1.66-17-.83"/>
  <path class="cls-2" d="M145,74.15c-9.59,1.37-18.17,4.5-26,10.33-4.49,3.35-8.14,7.6-11.25,12.24-23.82,35.44,7.3,84.18,49.25,78.71,7.72-1.01,15.54-3.72,22-8.07,36.4-24.54,26.22-84.07-18-92.38-5.35-1.01-10.58-1.61-16-.83"/>
</svg>